<svg width="26" height="27" viewBox="0 0 26 27" fill="none" xmlns="http://www.w3.org/2000/svg">
<path d="M13.1404 26.0162C20.0458 26.0162 25.6631 20.3989 25.6631 13.4935C25.6631 6.58805 20.0458 0.970703 13.1404 0.970703C6.23499 0.970703 0.617645 6.58805 0.617645 13.4935C0.617645 20.3989 6.23499 26.0162 13.1404 26.0162ZM13.1404 2.75967C19.0619 2.75967 23.8742 7.57198 23.8742 13.4935C23.8742 19.4149 19.0619 24.2272 13.1404 24.2272C7.21892 24.2272 2.40661 19.4149 2.40661 13.4935C2.40661 7.57198 7.21892 2.75967 13.1404 2.75967Z" fill="black"/>
<path d="M7.77364 12.5991H18.5074C19.0018 12.5991 19.4019 12.1985 19.4019 11.7046C19.4019 11.2107 19.0018 10.8101 18.5074 10.8101H9.44516L10.3069 9.51732C10.5808 9.1063 10.4698 8.55074 10.0589 8.27694C9.64704 8.00224 9.09184 8.11361 8.81848 8.52498L7.02952 11.2084C6.84651 11.4827 6.82951 11.8356 6.98498 12.1265C7.14079 12.4174 7.44384 12.5991 7.77364 12.5991Z" fill="black"/>
<path d="M7.77351 16.1776H16.8362L15.974 17.4704C15.6998 17.8814 15.8107 18.437 16.2221 18.7108C16.375 18.8126 16.5471 18.8611 16.7174 18.8611C17.0065 18.8611 17.2904 18.7213 17.4625 18.4628L19.2515 15.7793C19.4341 15.5051 19.4515 15.1521 19.2961 14.8612C19.1406 14.5703 18.8374 14.3887 18.5073 14.3887H7.77351C7.27958 14.3887 6.87903 14.7892 6.87903 15.2832C6.87903 15.7771 7.27958 16.1776 7.77351 16.1776Z" fill="black"/>
</svg>
