<svg width="1920" height="939" viewBox="0 0 1920 939" fill="none" xmlns="http://www.w3.org/2000/svg">
<path fill-rule="evenodd" clip-rule="evenodd" d="M1092.85 891.969L1092.49 892.372C1092.72 892.828 1092.86 893.419 1093.21 893.686C1093.67 893.899 1094.15 894.019 1094.65 894.04L1094.86 893.394L1092.85 891.914L1092.85 891.969ZM408.131 855.148L408.675 856.202C409.206 855.821 409.738 855.44 410.235 855.001C410.163 854.753 410.053 854.521 409.909 854.318C409.31 854.557 408.72 854.866 408.131 855.148ZM342.104 848.568C342.95 849.441 343.99 850.921 344.981 848.413L342.104 848.568ZM132.669 69.9515L132.073 69.8143C131.789 70.4325 131.575 71.0886 131.437 71.7664C131.455 72.3956 131.561 73.0163 131.751 73.6054L132.217 73.6254L132.666 70.0211L132.669 69.9515ZM215.388 41.4412L214.612 40.6553L213.173 42.74L213.715 43.2651L215.368 41.3288L215.388 41.4412ZM927.068 36.7702C927.204 36.4694 927.339 36.1826 927.462 35.8813L925.042 35.0946C925.038 35.192 925.034 35.2893 925.03 35.3728L927.068 36.7702ZM406.139 858.408L408.366 860.552C409.065 857.683 407.343 858.376 406.139 858.408ZM1154.23 889.806C1154.24 889.598 1154.25 889.389 1154.26 889.194L1150.51 889.033C1150.5 889.228 1150.49 889.437 1150.48 889.646L1154.23 889.806ZM145.735 75.9331L144.056 71.9031L141.965 74.601L145.733 75.9888L145.735 75.9331ZM1213.25 56.4386L1217.44 58.221C1216.4 56.5873 1215.35 54.9676 1213.25 56.4386ZM1216.34 891.521L1217.1 891.958C1218.06 890.452 1219.99 889.392 1218.5 886.178C1217.65 888.274 1217 889.891 1216.34 891.521ZM4.62272 13.9255C4.63465 13.6472 4.64593 13.3828 4.59662 13.1019L-0.725634 12.4838L-0.824623 14.7931L4.62272 13.9255ZM332.435 850.886C331.595 852.745 330.861 854.4 330.074 856.164C332.711 856.194 333.223 853.693 334.747 852.183L332.438 850.816L332.435 850.886ZM1996.63 107.775L1961.03 938.314C1960.43 938.024 1959.75 937.325 1959.25 937.471C1952.84 939.357 1946.69 937.49 1940.47 936.262C1938 935.655 1935.5 935.286 1932.97 935.16C1930.04 935.16 1927.14 935.482 1924.96 932.698C1922.89 936.428 1922.34 936.544 1920.39 933.603C1919.5 932.143 1918.21 931.052 1916.72 930.491C1914.13 929.315 1911.6 927.955 1909.17 926.419C1907.73 927.751 1908.29 931.691 1905.02 931.328L1903.68 930.183C1903.35 929.742 1903.05 929.262 1902.81 928.752C1901.11 924.275 1898.85 923.677 1895.51 927.213C1894.41 924.378 1892.38 922.368 1892.78 919.137C1892.3 918.991 1892 918.77 1891.79 918.844C1890.22 919.39 1888.27 920.937 1887.22 920.363C1886.16 919.788 1885.68 917.174 1884.98 915.458C1884.98 915.347 1884.83 915.257 1884.78 915.171L1880.71 917.491C1880.71 915.624 1880.72 914.328 1880.72 912.962C1879.86 912.965 1879.02 912.73 1878.27 912.277C1877.51 911.825 1876.87 911.168 1876.4 910.366C1875.26 908.407 1874.07 908.761 1872.47 911.075C1874.8 911.342 1874.44 912.762 1873.35 914.151C1872.26 915.54 1871.16 916.288 1870.11 917.413C1867.29 920.442 1864.24 922.945 1860.17 922.994C1856.48 923.045 1854.92 921.752 1853.95 917.975C1852.13 922.789 1851.87 922.959 1848.36 922.432C1847.21 923.592 1845.96 924.621 1844.62 925.505C1841.67 926.967 1838.76 928.307 1836.52 931.179C1835.32 932.703 1833.8 933.083 1831.77 931.937C1828.33 930.249 1824.8 928.785 1821.2 927.554C1825.94 921.415 1826.15 913.731 1829 906.689L1824.34 904.162L1822.06 907.005C1820.13 904.887 1818.46 902.781 1816.54 901.054C1815.29 900.248 1813.98 899.585 1812.62 899.074C1811.16 898.461 1809.79 897.584 1808.57 896.475C1808.08 895.752 1807.41 895.214 1806.65 894.933C1805.88 894.652 1805.05 894.639 1804.27 894.897C1803.54 895.084 1802.8 895.22 1802.05 895.304C1801.45 894.024 1800.92 893.012 1800.67 892.457C1799.18 892.714 1797.76 893.503 1796.97 892.996C1794.13 891.09 1793.97 887.738 1794.6 883.639L1789.57 886.546C1789.25 886.783 1788.93 887.034 1788.63 887.3L1783.78 879.873C1779.77 886.209 1772.99 885.947 1767.58 888.934C1765.3 886.634 1763.74 889.439 1762.06 890.259C1760.77 889.283 1762.22 886.475 1759.53 886.638C1758.72 886.687 1757.81 884.376 1756.71 882.838C1757.45 878.576 1756.68 876.467 1753.73 874.542C1752.94 873.966 1752.01 873.684 1751.06 873.736C1750.12 873.788 1749.21 874.171 1748.46 874.832C1745.92 876.633 1743.57 877.285 1740.3 875.221C1736.53 872.816 1732.29 870.473 1727.25 872.71C1724.95 873.741 1722.35 872.403 1720.69 869.516C1719.55 867.443 1719 865.017 1719.11 862.563C1718.47 862.815 1718 862.878 1717.99 863.003C1717.71 865.221 1717.49 867.428 1714.63 866.176C1714.36 866.039 1713.89 866.298 1713.55 866.479C1710 868.389 1706.44 870.257 1702.94 872.254C1700.2 873.809 1698.98 873.645 1697.61 870.632C1696.05 867.262 1694.14 864.099 1693.55 860.144C1693.31 858.517 1691.92 857.119 1691.07 855.605C1690.21 854.091 1689.15 853.948 1687.65 854.874C1686.3 855.525 1684.89 856.012 1683.45 856.324C1682.34 853.726 1681.5 851.627 1680.5 849.229C1677.87 851.249 1675.74 852.231 1673.4 849.97C1672.43 849.397 1671.33 849.175 1670.23 849.332C1667.55 849.343 1664.87 849.52 1662.32 849.621C1661.61 850.691 1661.01 851.585 1660.47 852.426C1658.87 854.629 1653.57 856.674 1651.58 855.237C1647.75 852.466 1643.71 852.976 1639.57 853.398C1637.42 853.785 1635.24 853.828 1633.08 853.524C1631.9 853.217 1630.66 853.272 1629.5 853.682C1628.33 854.093 1627.28 854.844 1626.45 855.86C1625.71 856.759 1624.8 857.462 1623.79 857.92C1622.78 858.378 1621.7 858.579 1620.62 858.509C1620.32 858.496 1620.02 858.135 1619.5 857.806L1621.43 855.631C1620.68 854.205 1619.98 852.781 1619.24 851.439C1619 851.012 1618.72 850.608 1618.41 850.233C1616.39 851.93 1616.28 848.748 1614.81 848.378C1614.69 849.154 1614.59 849.762 1614.49 850.427C1613.01 851.757 1611.86 851.513 1611.09 849.543C1610.76 848.706 1610.71 847.617 1610.2 847.01C1609.68 846.402 1608.41 845.539 1607.98 845.841C1605.45 847.475 1601.87 847.865 1601.86 852.548C1595.75 846.223 1593.73 836.408 1585.84 831.401C1581.26 831.204 1577.14 833.955 1573.68 838.169C1571.85 835.694 1571.85 835.693 1569.91 835.777C1570.01 836.59 1570.11 837.361 1570.24 838.342C1569.73 838.055 1569.34 837.941 1569.32 837.801C1569.15 835.118 1567.02 834.26 1565.55 833.109C1564.07 831.959 1562.61 833.778 1561.29 834.878C1560.5 835.541 1559.14 835.176 1558.98 837.009C1558.96 837.426 1557.42 838.071 1556.67 837.941C1555.33 837.72 1554.03 837.225 1552.85 836.482C1551.98 835.956 1551.01 835.688 1550.02 835.704C1549.03 835.72 1548.06 836.02 1547.19 836.574C1546.12 837.363 1544.89 837.852 1543.62 837.999C1542.35 838.145 1541.07 837.946 1539.89 837.418C1538.92 838.937 1537.48 840.31 1537.05 842.02C1536.14 845.521 1534.17 847.012 1530.96 847.543C1530.74 846.322 1530.09 845.255 1529.18 844.576C1528.26 843.896 1527.14 843.66 1526.06 843.919C1525.66 844.598 1525.22 845.276 1524.99 845.713L1517.32 846.596C1514.81 850.67 1513.52 851.688 1510.52 851.559C1509.73 851.526 1508.45 850.899 1508.29 850.251C1507.25 846.025 1503.51 845.126 1501.19 842.504C1499.31 840.375 1497.48 843.209 1496.27 842.823C1494.95 845.024 1494.06 846.798 1493 848.453C1491.93 850.107 1490.87 851.232 1489.92 852.725C1488.16 855.52 1487.59 855.649 1484.95 854.129C1483.76 853.409 1481.77 852.139 1481.05 852.679C1478.93 854.261 1477.83 852.541 1476.35 851.655C1472.5 855.505 1474.73 860.868 1473.62 865.239C1466.3 866.598 1466.3 866.598 1462.66 860.407C1461.94 860.975 1461.18 862.099 1460.52 862.043C1456.35 861.614 1454.92 865.162 1453.29 868.298C1450.83 873.001 1449.77 873.29 1445.39 870.022C1444.91 869.749 1444.41 869.523 1443.9 869.345C1440.38 867.563 1438.02 863.392 1433.83 863.004C1433.76 862.987 1433.7 862.951 1433.65 862.9C1433.6 862.85 1433.56 862.785 1433.54 862.712C1432.75 859.571 1430.57 858 1428.42 856.124C1426.27 854.247 1426.48 853.838 1423.75 855.924C1424.18 857.141 1424.61 858.372 1425.07 859.646C1421.61 862.689 1417.76 861.172 1414.35 861.193C1410.06 861.232 1409.16 861.208 1408.2 865.891C1407.98 867.253 1407.48 868.539 1406.74 869.648C1405.44 871.376 1405.73 873.089 1406.27 874.854C1406.81 876.619 1407.47 878.25 1408.05 879.976C1408.12 880.187 1407.94 880.515 1407.88 880.791L1405.03 881.672C1405.01 882.326 1404.99 882.618 1404.98 882.938C1405.07 884.246 1404.95 885.565 1404.6 886.824C1404.5 887.158 1404.32 887.459 1404.1 887.707C1403.87 887.954 1403.6 888.14 1403.3 888.251C1403.01 888.362 1402.69 888.395 1402.38 888.347C1402.08 888.299 1401.78 888.172 1401.52 887.975C1401.43 887.901 1401.02 888.329 1400.78 888.556C1398.45 890.3 1396.77 892.955 1396.06 896.006L1390.72 890.578L1386.84 895.122C1383.25 893.003 1379.64 891.441 1375.55 891.851C1375.13 891.813 1374.72 891.711 1374.33 891.548C1367.82 890.14 1361.43 888.319 1356.01 884.212C1354.94 884.807 1354.12 885.65 1353.3 885.67C1347.53 885.785 1344.57 884.488 1342 878.426C1341.75 877.558 1341.32 876.772 1340.75 876.133C1340.18 875.493 1339.48 875.018 1338.71 874.746C1337.18 880.492 1342.07 882.318 1343.84 886.268L1340.55 888.204C1340.37 889.464 1340.17 890.767 1340.02 891.75L1342.66 893.256C1341.85 894.615 1340.93 895.496 1340.74 896.574C1340.42 898.233 1338.04 895.832 1338.31 898.45C1338.29 898.923 1336.78 899.624 1335.88 900.283C1335.66 899.326 1335.53 898.776 1335.29 897.79L1333.66 900.16L1339.36 903.192C1339.47 903.74 1339.64 904.597 1339.82 905.622C1338.63 906.629 1337.18 907.16 1335.71 907.132C1334.23 907.105 1332.81 906.519 1331.67 905.468C1330.31 904.435 1326.98 905.797 1327.45 906.681C1328.8 909.359 1326.11 909.286 1326.15 910.807C1320.85 909.911 1319.2 909.561 1312.8 911.447C1304.34 913.95 1295.49 914.083 1287.02 911.833C1282.87 910.763 1281.99 909.095 1282.19 904.309L1282.68 892.971C1279.43 891.814 1279.67 890.361 1280.91 883.905C1278.81 883.509 1277.79 884.441 1277.03 886.708C1275.15 892.328 1273.43 893.271 1268.28 892.019C1267.22 891.765 1266.21 891.373 1265.17 891.077L1256.12 888.543C1255.72 892.024 1253.75 893.18 1251.67 894.304C1250.59 894.898 1249.02 895.584 1248.74 896.547C1247.97 899.191 1245.96 899.787 1244.32 901.055C1242.48 902.345 1240.69 903.743 1238.97 905.244C1235.92 908.11 1235.1 907.977 1232.33 904.583C1230.19 901.941 1228.52 898.19 1224.29 899.263C1223.33 899.284 1222.41 898.88 1221.72 898.135C1218.02 894.464 1213.14 896.374 1209.05 894.665C1208.65 894.508 1208 894.941 1207.54 895.227C1204.36 896.913 1201.26 898.8 1198.26 900.879C1197.47 901.586 1196.53 902.037 1195.53 902.183C1194.53 902.329 1193.53 902.165 1192.61 901.709L1188.73 906.449C1186.46 902.17 1181.53 900.816 1181.98 896.139L1174.48 888.848L1168.93 895.579L1166.81 895.753C1167.23 894.809 1167.64 893.879 1168.05 893.019C1167.11 892.7 1165.52 891.851 1165.32 892.149C1163.03 895.675 1160 893.65 1158.04 892.743C1156.89 892.055 1155.58 891.78 1154.28 891.953C1152.98 892.126 1151.75 892.739 1150.75 893.713C1150.12 892.526 1149.56 891.291 1149.07 890.017C1148.76 888.769 1148.52 887.497 1148.36 886.21C1142.41 886.805 1140.55 885.568 1139.06 880.236C1138.97 879.954 1139.09 879.582 1138.94 879.325C1137.07 875.523 1135.83 871.191 1132.21 868.542C1130.68 870.525 1130.94 872.669 1131.03 874.749C1131.07 875.726 1131.28 877.143 1130.82 877.639C1127.5 881.274 1124.02 884.762 1118.95 884.489C1117.23 884.415 1115.75 883.92 1115.58 881.376C1114.25 883.855 1113.01 886.102 1110.24 886.109C1109.89 886.094 1109.53 886.789 1109.18 887.165C1108.35 888.296 1107.38 889.295 1106.31 890.135C1104.09 891.235 1102.19 893.018 1100.81 895.28C1100.39 895.955 1099.86 896.529 1099.24 896.965C1098.62 897.4 1097.93 897.69 1097.21 897.815C1093.2 898.034 1089.21 897.611 1085.91 894.459L1089.65 874.94C1085.34 872.247 1085.34 872.247 1083.24 875.042C1080.64 874.47 1078.09 873.079 1075.94 873.67C1074.94 874.058 1073.85 874.091 1072.84 873.763C1071.83 873.436 1070.93 872.764 1070.26 871.838C1069.61 872.721 1068.89 873.53 1068.1 874.254C1067.81 874.503 1067.48 874.683 1067.13 874.784C1066.78 874.885 1066.41 874.904 1066.06 874.84C1065.7 874.777 1065.36 874.632 1065.06 874.415C1064.75 874.197 1064.49 873.911 1064.29 873.574C1062.62 871.231 1062.32 871.107 1061.34 873.908C1061.25 874.339 1061.08 874.744 1060.84 875.096C1060.6 875.448 1060.3 875.74 1059.96 875.951C1059.61 876.163 1059.23 876.29 1058.84 876.324C1058.46 876.358 1058.07 876.299 1057.7 876.149C1057.74 875.245 1057.7 874.56 1057.69 873.863C1054.36 873.971 1054.62 876.24 1055.24 878.371C1053.2 879.455 1052.82 877.598 1052.17 876.679C1051.5 875.639 1050.56 874.852 1049.49 874.416C1048.42 873.981 1047.25 873.917 1046.14 874.232C1043.08 874.927 1039.95 875.145 1036.85 874.879C1034.22 874.644 1031.58 875.25 1029.23 876.629C1028.45 877.004 1027.6 877.182 1026.75 877.15C1025.9 874.173 1023.77 875.336 1022.12 875.363L1020.32 869.905C1018.19 871.208 1016.51 872.892 1014.64 873.272C1012.77 873.652 1010.86 872.692 1008.67 872.263C1007.71 872.998 1006.67 873.586 1005.58 874.013C1000.83 875.314 996.045 876.642 991.103 876.305C989.344 876.142 987.592 876.767 986.219 878.047C981.722 881.924 976.353 883.826 971.052 885.578C966.074 887.218 964.099 885.489 962.975 879.657C962.884 879.207 963.02 878.627 962.888 878.259C961.754 876.106 960.471 873.974 959.191 871.773L956.987 872.835C957.055 874.107 957.111 875.085 957.186 876.496C955.766 876.128 954.154 876.24 953.756 875.512C952.496 873.145 951.289 874.096 950.241 875.362C949.507 876.489 948.894 877.713 948.417 879.005C945.051 876.24 945.051 876.24 942.403 876.196C942.767 878.753 943.371 881.256 944.205 883.661C944.789 884.94 946.58 885.504 947.962 886.47C942.899 890.085 938.186 895.305 931.735 890.095L932.045 882.874C930.912 883.815 929.799 884.311 929.777 884.84C929.821 886.564 930.002 888.28 930.317 889.964C929.246 890.336 927.98 891.258 927.06 890.981C925.645 890.502 925.327 891.06 924.557 892.128C923.738 893.18 922.599 893.839 921.374 893.971C920.434 894.037 919.513 894.319 918.668 894.8C917.822 895.281 917.07 895.952 916.457 896.771C915.707 897.699 914.705 898.317 913.614 898.523C912.523 898.729 911.407 898.512 910.446 897.907C907.917 896.53 905.428 895.057 902.519 893.386C906.027 887.961 908.597 882.385 909.406 875.813C908.454 875.193 907.448 874.683 906.404 874.291C905.089 874.11 903.762 874.053 902.436 874.121C902.089 875.639 901.605 877.5 901.242 879.38C900.354 884.067 898.842 885.855 894.864 885.071C889.639 884.226 884.522 882.707 879.612 880.543C874.481 878.052 870.009 873.888 864.286 873.461C864.008 870.801 863.782 868.617 863.506 865.916C861.976 866.672 860.908 867.281 859.747 867.733C857.825 868.501 854.377 867.378 854.203 865.419C853.943 862.62 851.894 862.031 850.936 860.638L847.397 866.201L847.532 866.206C845.294 864.619 843.119 863.55 840.932 866.481C840.489 867.089 839.459 867.087 838.777 867.531C837.831 868.146 836.951 868.93 836.049 869.644L836.118 869.759C836.039 869.309 835.96 868.86 835.844 868.13C834.724 868.801 833.465 869.102 832.209 869.002C830.954 868.901 829.752 868.402 828.741 867.561C828.67 866.624 828.588 865.687 828.449 864.064L826.387 866.666C825.316 866.731 824.665 864.473 823.257 865.849L825.338 870.509C823.748 870.121 822.615 870.225 822.039 869.629C820.243 867.754 818.855 868.643 817.487 870.215C816.12 871.787 814.748 873.456 813.404 875.043C807.039 872.415 805.373 869.779 805.791 863.162L810.307 861.14L808.219 859.476L804.202 863.039C803.327 861.398 802.579 859.958 801.931 858.76C800.705 858.863 799.475 858.89 798.248 858.839C796.975 858.626 795.714 858.335 794.47 857.966C791.407 864.177 787.269 865.686 781.933 862.516C782.709 859.009 781.098 856.515 779.223 854.177C778.747 854.185 778.273 854.268 777.814 854.423C775.509 855.83 773.533 856.135 771.103 854.136C769.443 852.81 767.123 851.414 764.512 852.78C764.259 853.535 763.917 854.371 763.683 855.239C762.049 861.302 759.342 862.928 753.935 861.121C753.049 860.811 752.126 860.649 751.196 860.641C746.174 860.934 741.165 860.036 736.489 858.004C731.16 855.531 725.776 853.21 719.775 854.388C719.317 854.48 718.783 854.053 718.156 853.817C717.913 852.329 717.68 850.884 717.448 849.424L714.724 848.304C715.657 850.867 716.38 852.891 717.203 855.156C715.112 857.854 712.79 859.929 709.331 859.906C706.523 859.883 703.701 860.18 701.469 857.576C701.751 856.96 701.996 856.323 702.201 855.67C702.321 855.1 702.403 854.521 702.447 853.938C701.465 853.961 700.484 853.919 699.508 853.812C697.013 853.343 696.02 853.914 694.47 856.872L692.782 859.336C691.935 858.77 690.809 858.429 690.268 857.597C687.402 853.196 687.013 853.095 683.728 856.76C683.467 856.9 683.196 857.009 682.916 857.087C681.81 856.287 680.539 855.299 679.144 854.361C677.823 853.322 676.426 852.414 674.967 851.645C672.848 850.69 670.521 850.312 668.443 849.289C663.013 846.603 657.638 843.766 654.333 838.733C649.755 837.059 645.999 839.114 641.968 840.99C641.244 839.273 640.632 837.811 640.008 836.349C638.362 836.111 637.316 835.327 633.934 831.795L630.175 833.627C629.249 831.976 628.244 830.384 627.165 828.857C625.42 826.65 623.377 826.799 621.71 829.042C620.982 830.014 620.375 831.577 619.472 831.733C618.2 831.838 616.933 831.512 615.832 830.797C615.383 830.451 614.83 830.323 614.294 830.441C613.757 830.559 613.282 830.914 612.971 831.427C612.216 832.44 611.545 833.512 611.007 834.311C608.174 835.151 607.002 833.024 605.936 830.414L603.198 834.478C603.119 832.3 603.054 830.374 602.957 827.792L600.211 829.751C600.665 831.164 601.401 832.31 601.286 833.281C601.183 833.96 599.876 834.405 598.952 835.076C599.44 837.132 599.94 839.216 600.604 842.032C598.147 842.108 595.864 843 594.393 842.101C590.594 839.722 586.638 840.138 582.636 840.203C580.181 840.237 577.5 839.815 575.139 840.523C572.778 841.23 570.33 843.104 567.787 844.598L565.274 841.702C563.725 842.333 562.263 842.967 560.827 841.275C559.998 840.278 558.961 839.564 559.761 837.522L552.892 838.621C552.533 837.839 551.644 836.826 551.777 836.023C551.979 833.963 552.633 831.988 553.679 830.279C554.976 828.662 555.312 827.686 553.699 825.819C553.566 827.207 551.282 826.97 552.332 829.078C552.332 829.078 552.224 829.324 552.238 829.269C548.841 830.113 546.521 828.425 544.928 825.234C543.673 825.877 542.697 826.909 541.781 826.814C539.73 826.573 538.33 829.454 536.238 828.193C535.324 827.682 534.303 827.457 533.282 827.543C532.261 827.629 531.275 828.023 530.426 828.682C527.351 830.585 524.678 833.412 521.056 834.065C518.448 834.511 515.729 834.394 513.416 836.26C513.174 836.473 512.747 836.413 512.513 836.444L511.258 833.087C510.129 833.039 509.015 833.435 508.106 834.208C507.196 834.982 506.547 836.086 506.267 837.334C505.261 840.761 503.043 843.857 503.559 847.852C503.685 848.916 502.958 850.125 502.641 851.227L495.861 849.431C492.504 855.043 486.826 856.138 481.805 859.365C480.644 850.953 474.689 845.346 472.61 837.452L468.086 839.404L472.301 842.665C470.288 845.561 468.386 848.142 466.653 850.785C464.434 854.188 462.049 855.438 458.639 854.302C456.56 853.643 454.358 853.63 452.261 854.266C450.128 854.802 447.641 855.573 446.33 852.952C445.101 853.904 443.768 854.672 442.368 855.236C440.348 855.693 439.782 854.888 439.811 852.492C439.861 849.038 439.861 849.038 435.83 849.199L439.33 855.984C436.951 859.979 434.145 862.465 429.933 862.549C426.85 862.654 423.779 863.011 421.551 860.908C421.994 857.721 422.489 855.052 422.666 852.356C422.698 851.154 422.387 849.978 421.779 849.001C420.446 846.895 417.564 847.733 415.695 850.413C414.558 852.037 413.173 853.441 411.815 855.069C411.95 856.775 412.106 858.858 412.281 861.082C406.562 863.694 403.664 858.901 400.166 855.517C399.379 856.975 398.54 858.235 397.924 859.714C396.563 862.847 396.632 862.975 393.77 862.198C391.551 861.587 389.592 861.489 387.787 863.53C386.317 865.195 384.654 864.79 382.867 863.835C380.962 862.77 378.927 862.03 376.827 861.639C374.241 861.277 371.481 862.413 369.119 860.291C368.918 860.101 368.335 860.257 368.02 860.453C364.886 862.298 362.969 860.362 360.93 857.849L361.354 861.115C355.149 867.065 348.825 867.198 342.032 861.681C344.949 858.893 345.974 855.578 344.45 851.652L335.923 853.948C332.157 860.532 332.403 859.372 327.858 855.205C325.909 856.32 323.86 857.473 321.822 858.654C319.831 859.959 318.048 861.641 316.554 863.627C313.037 867.824 309.122 867.001 306.42 861.924C306.042 861.319 305.595 860.775 305.091 860.306C303.97 859.312 302.918 858.223 301.942 857.049C300.078 854.46 298.38 851.726 296.652 849.101C290.524 850.678 290.524 850.678 290.543 853.954C287.829 855.719 285.147 857.332 282.577 859.187C280.007 861.042 277.99 861.165 275.447 859.244C274.493 858.414 273.446 857.732 272.332 857.215C268.322 855.733 263.901 856.129 260.01 853.9C259.489 853.742 258.943 853.718 258.41 853.827C257.877 853.937 257.371 854.178 256.928 854.534C252.756 857.7 248.564 856.754 244.194 855.382C240.695 854.284 237.08 852.192 233.472 855.368C233.224 855.514 232.941 855.561 232.669 855.501C228.913 854.699 225.283 853.512 222.902 849.814C221.086 846.949 221.379 845.568 223.876 842.817C224.394 842.184 224.878 841.516 225.324 840.817C222.738 839.047 222.738 839.047 220.949 842.998C217.731 843.948 216.636 839.441 213.423 839.401C210.616 839.364 208.375 835.24 205.114 837.191C204.034 839.221 202.993 841.462 201.368 842.731C198.559 844.897 196.177 847.706 194.378 850.975C192.289 854.76 190.439 855.294 186.825 853.438C186.033 853.028 185.097 852.263 184.413 852.471C180.691 853.454 177.173 852.509 173.588 852.007C172.327 851.672 171.113 851.151 169.974 850.458C170.494 848.348 170.905 846.777 171.447 844.723C168.627 845.536 166.36 844.045 163.984 843.651C162.926 843.57 161.897 843.237 160.963 842.673C160.03 842.11 159.214 841.329 158.567 840.38C158.009 839.578 157.252 838.984 156.392 838.674C155.531 838.364 154.607 838.352 153.735 838.64C152.758 841.385 150.877 842.336 148.252 842.043C147.048 841.837 145.814 842.135 144.781 842.883C141.985 845.704 137.833 844.704 135.129 847.668C134.769 848.057 133.825 847.752 133.113 847.777C132.604 846.473 132.153 845.255 131.591 843.781L128.748 845.416L132.695 849.515C130.398 857.013 125.354 860.197 118.476 858.662C119.506 854.107 116.72 850.698 115.834 846.758C113.379 848.492 111.039 851.012 107.89 848.327L110.313 846.186C108.928 844.162 108.055 845.922 107.069 846.312C105.32 847.032 103.572 848.323 101.829 848.345C100.821 848.247 99.8092 848.521 98.9431 849.126C98.077 849.732 97.4036 850.638 97.0231 851.707C96.0833 853.883 94.8067 855.613 92.1159 855.135L90.5809 851.167C91.278 850.932 92.0285 850.88 92.0882 850.632C92.7111 848.122 90.6645 847.783 89.1755 846.172L86.3542 849.313L84.3145 847.957C79.7556 857.002 81.0575 856.389 83.0294 864.766C82.4416 864.741 81.9805 864.624 81.528 864.59C81.0755 864.557 80.4626 864.545 79.6544 864.51L80.9464 866.712L76.8589 866.188L76.0187 867.476L78.5752 868.506C76.9457 873.607 73.1872 869.418 71.0525 872.281L73.2869 874.537C72.8354 875.911 72.4486 877.205 72.0374 878.497C67.2109 878.904 65.643 874.558 63.3107 871.155L58.9063 876.304C56.5246 874.627 54.4088 873.045 52.2287 871.53C51.7131 871.111 51.1143 870.841 50.4835 870.744C45.3583 870.394 40.4007 868.621 36.0444 865.582C32.8834 863.481 29.752 862.12 25.9302 863.127C24.8071 865.573 23.6424 868.13 22.5479 870.48L17.2303 870.894C16.7857 872.965 16.4214 874.887 15.9361 876.761C15.6986 877.771 15.3132 878.73 14.7962 879.598C14.5929 879.777 14.3545 879.896 14.102 879.946C13.8495 879.996 13.5908 879.975 13.3487 879.884C13.1168 879.741 12.9188 879.536 12.7716 879.287C12.6244 879.039 12.5318 878.753 12.5018 878.454C12.2755 875.434 12.3186 875.575 9.87065 876.014C7.97918 876.351 5.95407 877.518 4.17653 875.77C3.65196 875.131 3.19645 874.424 2.81931 873.662L-0.493633 875.388C-1.01701 873.861 -1.42233 872.728 -1.78979 871.57C-2.74038 868.56 -6.74066 864.863 -9.35045 865.071C-11.7439 865.219 -14.1133 865.727 -16.396 866.581C-17.2024 866.968 -18.0907 867.069 -18.9432 866.871C-19.7957 866.673 -20.5721 866.184 -21.1697 865.47C-22.3453 864.277 -23.5203 863.07 -24.8689 861.619C-23.844 860.902 -22.9073 860.032 -22.0837 859.034C-21.5122 858.101 -21.2665 856.963 -21.395 855.844C-21.4954 855.324 -22.9347 854.844 -23.7354 854.921C-24.6033 855.183 -25.424 855.62 -26.1584 856.211C-26.9314 854.784 -27.2308 852.611 -29.414 854.316C-29.7262 854.411 -30.0538 854.414 -30.3657 854.325C-30.6776 854.236 -30.9635 854.058 -31.1959 853.807C-31.6079 852.959 -32.2235 852.264 -32.972 851.801C-33.7204 851.337 -34.571 851.124 -35.4262 851.187C-36.3856 851.243 -37.4099 849.095 -38.381 847.994C-38.0851 845.958 -35.6652 844.166 -38.4929 841.731C-41.4122 844.867 -47.1931 844.355 -47.4913 851.311C-47.5247 852.09 -48.3295 852.836 -48.8172 853.623L-52.8672 852.223C-53.4513 853.257 -54.033 854.236 -54.5108 855.08L-57.128 854.605L-57.3296 859.307C-62.8745 858.442 -67.8063 854.147 -73.5165 856.564C-73.7017 855.163 -73.8665 854.138 -74.082 852.582L-76.3754 854.574C-79.3689 852.285 -78.6784 849.054 -78.5484 846.021L-43.5087 28.6011C-43.4556 27.363 -43.4025 26.1249 -43.35 24.9007C-43.3281 24.2983 -43.172 23.7104 -42.8964 23.1919C-41.8855 21.6464 -40.7919 20.174 -39.7105 18.7012C-39.606 18.5523 -39.3134 18.5926 -39.1395 18.5443C-39.0182 19.7202 -38.8957 20.8683 -38.7738 22.0304C-29.0894 20.2016 -27.9298 20.6276 -23.4817 27.6198C-22.2729 25.1768 -21.9376 21.93 -18.5318 21.7554C-19.06 20.339 -19.4414 19.2216 -19.8369 18.1454L-19.2902 17.6948L-16.7397 20.5916C-15.1292 20.8 -16.0222 16.4413 -13.799 18.0976C-15.3005 22.2145 -16.723 26.2091 -18.3111 30.6289L-14.5932 29.7569C-15.772 26.9189 -15.772 26.9189 -14.3678 24.4982C-14.0942 24.9838 -13.8076 25.4562 -13.4181 26.1001C-12.5516 23.6285 -11.7293 21.3363 -10.7803 18.6591C-8.56066 21.5418 -12.305 23.3184 -10.7865 25.0978L-8.12871 27.2047C-7.7528 25.4296 -7.2681 23.6856 -6.67814 21.9849C-5.31701 18.8515 -6.34023 14.0966 -0.713866 13.3483L-3.75126 11.5177C-3.32962 10.2675 -2.88111 8.96278 -2.35197 7.49415C-0.597651 10.3568 1.75384 6.44367 3.43166 8.80133C4.65694 10.5542 7.90293 10.3866 7.22365 13.354C8.78045 14.8145 10.0533 16.026 11.4425 17.1029C13.5331 18.7924 15.7118 20.3376 17.967 21.7309C19.7027 22.7391 21.7494 23.0777 23.5382 23.9906C26.1284 25.3361 28.9281 26.0998 31.7842 26.2397C32.5826 26.1893 33.3785 26.3435 34.1133 26.6911C34.8482 27.0387 35.503 27.5708 36.0288 28.2476C36.9364 29.4262 38.079 30.3408 39.3636 30.9167C40.6482 31.4926 42.0381 31.7133 43.4193 31.5608C44.6237 31.6674 45.8166 31.8912 46.9851 32.2295C47.1443 32.2363 47.3354 32.077 47.5104 32.0009L47.013 30.4327L55.2843 28.9474L59.3298 33.0234C60.0731 32.1712 61.0746 31.6747 62.125 31.6378C62.4837 31.5958 62.8165 31.4009 63.0562 31.0925C65.2384 27.9804 68.2644 28.0824 71.2944 28.0868C72.0622 28.0406 72.8261 27.9241 73.5788 27.7387C74.974 21.8054 71.0272 17.7197 70.6924 12.9388C72.5871 12.2395 74.1965 11.6116 75.8275 11.0543C78.0191 10.2981 80.2433 9.64081 82.435 8.88457C86.0458 7.64561 88.5512 9.30005 90.7998 12.3651C92.323 14.44 94.3092 16.0116 96.5548 16.9186C98.7465 17.8767 102.185 18.6512 101.81 23.6804C105.312 20.4159 106.935 23.1893 109 25.675L105.771 32.0317L110.13 34.7828L110.575 24.4046C112.741 23.984 114.928 23.7378 117.121 23.6678C122.252 23.8878 125.853 27.7495 129.534 31.1686C129.783 31.4252 129.979 31.7413 130.107 32.0949C130.236 32.4485 130.294 32.8309 130.277 33.2145C130.261 33.5982 130.171 33.9739 130.012 34.3152C129.854 34.6564 129.632 34.9547 129.362 35.189C126.992 36.9411 125.912 39.543 124.418 42.0435C123.827 42.8416 123.426 43.7973 123.254 44.8178C123.081 45.8383 123.143 46.889 123.433 47.8688C125.712 49.3603 128.801 49.9945 129.283 54.4891C128.135 54.6166 126.98 54.6139 125.836 54.4808C124.413 53.9925 123.032 53.3641 121.708 52.6033C122.596 54.7877 123.702 56.1872 123.432 57.0537C122.504 60.0802 124.411 59.0888 125.518 59.3174C125.685 59.4975 125.837 59.6952 125.971 59.9082C123.421 60.1612 123.889 62.1187 123.793 64.0658C125.518 63.4945 127.346 63.5087 129.052 64.1071C130.758 64.7055 132.267 65.8616 133.39 67.4317L136.838 66.2834C136.399 67.352 136.075 68.4751 135.872 69.6287C135.697 73.7188 135.378 74.2767 132.257 75.8293C131.919 75.996 131.953 77.21 131.599 78.8673C133.714 77.3412 135 76.2258 136.396 75.4494C139.187 73.8547 141.271 70.4734 144.975 71.0642C145.358 71.051 145.735 70.9357 146.074 70.7276C146.414 70.5194 146.706 70.2242 146.928 69.8658C148.422 67.3514 149.846 64.7505 151.114 62.087C151.853 60.2732 153.112 58.7927 154.683 57.8897C156.253 56.9867 158.042 56.7149 159.755 57.1193C160.664 57.3324 161.61 57.2721 162.498 56.9443C165.104 55.7524 167.626 54.332 170.041 52.6961C173.268 50.3814 175.756 50.1538 178.94 52.576C179.701 53.1522 180.475 53.7009 180.82 53.9387C184.92 50.4489 189.457 50.504 194.107 49.6302C194.098 52.1385 194.088 54.6608 194.072 57.6148C194.734 57.0439 195.641 56.4974 195.576 56.2855C194.973 53.7649 196.383 52.3479 197.607 50.7C198.085 49.805 198.406 48.8156 198.554 47.786C199.538 43.7166 197.659 40.054 196.946 36.3579C196.315 33.3343 197.142 31.7809 199.418 30.2198C199.246 31.3693 199.061 32.5183 198.845 33.8331L202.521 35.3844L204.686 30.655C203.781 30.0169 201.667 29.2573 202.994 27.4884C204.074 26.0573 205.759 24.2339 208 25.1802L211.067 26.6217C210.537 24.3829 209.529 23.852 207.999 25.208C208.804 23.3192 210.328 24.388 211.512 23.9649C212.537 23.5841 213.511 23.0391 214.403 22.3466C214.556 22.2277 214.262 21.3369 214.153 20.7329L211.624 22.5062L210.861 21.9855C211.467 19.5725 212.061 17.173 212.698 14.608C214.276 14.0624 215.964 14.1307 217.492 14.8026C219.02 15.4744 220.299 16.7108 221.127 18.3141C222.479 20.7932 224.021 23.1307 225.735 25.2993L231.827 19.4139C232.151 19.8598 232.447 20.6811 232.814 20.7108C236.309 21.0417 238.488 24.0201 241.256 25.8252C241.829 26.1982 242.611 27.1237 242.864 26.9534C245.466 25.2112 247.243 27.8238 249.302 28.4417C257.392 31.0008 264.995 35.1932 271.75 40.819C275.522 43.8378 277.252 43.8423 280.477 40.1478C281.108 39.3474 281.904 38.7364 282.792 38.3704C283.679 38.0044 284.631 37.8949 285.56 38.0518C286.43 38.0891 287.311 38.1269 288.181 38.1642C288.189 37.9694 288.197 37.7747 288.206 37.58L283.428 36.8457C286.782 33.8675 286.782 33.8674 289.842 34.8905C290.517 36.6059 290.743 38.4833 291.679 39.276C293.939 41.1988 296.046 42.9894 297.237 46.1206C297.449 46.7946 297.628 47.4815 297.774 48.1785C297.903 48.6161 298.841 48.7678 300.006 49.3474C299.457 46.9824 299.083 45.4051 298.722 43.8286L298.648 43.8254C299.338 42.9073 300.015 41.9886 300.888 40.7995C302.151 43.9617 303.304 46.8267 304.51 49.8749C309.049 49.5956 311.851 45.7852 314.99 43.5225C318.203 43.8414 320.89 44.9881 324.188 44.4466C328.241 43.7702 332.569 44.6942 336.694 45.4842C341.489 46.3867 346.132 48.2722 350.934 48.9938C353.531 49.3699 355.221 50.0138 355.474 52.7145C357.553 53.1306 359.662 53.3376 361.777 53.3332C363.371 53.0928 364.988 53.2894 366.492 53.9069C367.996 54.5243 369.343 55.5446 370.421 56.8815C372.935 59.7768 375.706 62.6828 380.271 60.9273C380.844 60.658 381.458 60.5238 382.076 60.5323C382.694 60.5409 383.302 60.6919 383.864 60.9768C384.425 61.2617 384.929 61.6744 385.343 62.1893C385.758 62.7043 386.075 63.3108 386.275 63.9721C385.578 65.6287 384.91 67.2028 384.254 68.7636C386.183 69.7637 388.064 70.8771 389.889 72.0992C391.316 73.1639 392.463 74.7185 393.822 75.9335C396.056 77.9108 396.384 79.1234 395.677 82.452C395.556 82.9903 396.224 83.73 396.548 84.4547C399.117 81.7773 402.031 81.9021 404.906 81.8162C405.227 84.6175 405.541 87.0283 405.903 90.0265C407.737 89.3106 409.717 89.2006 410.076 88.2821C411.451 84.8288 414.693 85.0236 416.731 82.9924C416.617 77.9143 420.612 73.1515 424.917 74.0329C426.73 74.3893 427.716 74.585 428.963 72.9521C429.471 72.277 430.711 72.2605 431.639 72.0773C435.77 71.2927 439.9 70.5358 444.265 69.7334C445.033 66.9788 445.724 64.3184 446.498 61.7035C447.12 59.514 447.379 56.905 448.625 55.2999C449.621 54.1288 450.24 52.6117 450.38 50.9986C450.514 49.3486 450.954 47.7457 451.669 46.2945C452.384 44.8433 453.36 43.5767 454.532 42.5773C455.375 41.8353 456.352 41.3146 457.39 41.0529C458.429 40.7912 459.503 40.7951 460.535 41.0645C465.261 41.8525 469.021 45.4283 473.899 45.8186C479.277 46.2861 484.591 47.6708 489.932 48.7221C490.6 54.3257 499.394 56.9466 503.386 54.2606L512.108 57.422L514.755 62.6503C512.795 67.1518 516.188 69.5691 518.849 72.7355L522.308 67.3088C522.48 67.3162 523.315 67.8675 523.744 67.5793C527.021 65.5958 530.178 63.3657 533.195 60.9041C535.773 58.4498 538.166 55.755 540.349 52.8483C541.646 51.2036 543.392 49.4107 543.771 47.42C544.614 42.9404 546.865 38.786 546.433 33.9731C546.515 32.8967 546.742 31.8392 547.108 30.8381C547.868 27.1216 550.167 25.5754 553.266 25.1229C555.315 24.8344 557.117 25.7202 559.058 26.2355C562.417 27.146 565.994 26.9787 569.576 27.2716C573.294 20.3926 580.262 23.5485 585.462 20.7191C585.722 21.5015 585.926 22.3073 586.071 23.1284C586.207 24.8207 586.281 26.5244 586.294 28.2114C586.28 30.0394 586.637 31.842 587.337 33.4793C588.037 35.1166 589.061 36.5446 590.331 37.6527C592.83 40.0177 595.696 40.1407 598.622 40.2662C600.379 40.248 602.114 40.6529 603.714 41.4543C605.315 42.2556 606.744 43.435 607.906 44.9148C609.223 46.8249 610.919 47.6224 612.36 48.9246C613.145 49.6626 614.13 50.0736 615.155 50.0897C616.179 50.1058 617.182 49.7261 617.999 49.0132C618.431 48.6693 619.285 49.0683 619.946 49.0966C622.694 42.2457 628.193 38.4533 632.884 40.0482C634.623 43.5652 632.757 49.3253 637.709 50.2763L644.512 46.1216C642.443 50.2978 646.221 51.4633 646.417 54.6354C648.02 53.5752 649.307 52.7525 650.547 51.8579C651.216 51.3649 651.851 50.8143 652.446 50.2111C652.86 49.7468 653.377 49.4173 653.94 49.2581C654.503 49.0988 655.092 49.1156 655.644 49.3066C656.196 49.4976 656.69 49.8558 657.075 50.3428C657.459 50.8298 657.718 51.4276 657.825 52.0723C658.015 53.0839 657.994 54.1562 658.121 55.2069C658.294 56.6081 658.503 58.0108 658.838 60.506C660.836 57.9575 662.089 56.1992 663.495 54.6009C666.203 51.5253 668.843 51.4854 671.759 54.147C672.859 55.1911 674.081 56.0592 675.39 56.7278C677.457 57.7362 679.633 58.4846 681.298 59.1414C681.703 60.8798 682.234 62.5757 682.884 64.2127C684.456 67.3324 686.217 70.3207 688.141 73.8039L691.442 75.7853C689.462 79.3381 689.462 79.3382 692 80.5063C691.654 76.575 693.484 74.5207 696.537 73.4112C697.143 73.0467 697.709 72.6032 698.225 72.0898C702.496 68.9 706.723 65.611 712.176 64.6044C712.446 62.595 712.722 60.4464 712.989 58.5205C716.592 57.7411 717.767 58.377 719.263 60.9638C721.137 64.194 722.534 67.9473 726.464 69.0078C727.264 69.3115 727.944 69.9202 728.389 70.7314C728.835 71.5427 729.019 72.5067 728.91 73.4609C728 73.7463 727.146 74.2307 726.396 74.8864C726.13 75.2746 725.947 75.7265 725.86 76.2065C725.774 76.6865 725.786 77.1814 725.897 77.6525C726.199 78.6132 726.878 79.0882 728.151 78.2926C729.826 77.4414 731.611 76.9103 733.433 76.721C734.137 76.5979 735.372 76.9853 735.605 77.5528C737.149 81.3264 739.412 79.7511 741.562 79.1185C741.444 77.8066 741.39 76.4874 741.4 75.1672C741.666 70.6768 742.95 66.2023 741.314 61.714C741.202 60.844 741.24 59.9556 741.426 59.0984C744.376 58.9601 747.062 58.9915 749.725 58.6736C752.894 58.2938 754.717 59.8495 755.968 63.0112C756.51 64.548 757.462 65.8501 758.691 66.7375C760.271 67.7991 761.59 69.2924 762.529 71.0832C763.738 72.6736 765.076 74.1308 766.526 75.4358C766.654 75.5807 766.501 76.0202 766.477 76.5627L763.169 79.3339L766.187 81.6233L767.976 76.2227C772.646 74.8898 775.922 77.7482 779.165 81.0928C780.436 80.0463 781.481 79.1431 782.552 78.2134C783.554 77.1565 784.637 76.2047 785.79 75.3697C787.47 74.5365 789.017 73.3868 790.364 71.9698C792.84 69.163 796.096 69.916 798.336 73.1758C800.576 76.4357 802.342 79.8979 805.025 82.2708C806.875 83.9377 808.427 85.9906 809.599 88.3208C811.017 91.0158 811.828 91.831 814.284 91.2254C816.038 90.6225 817.749 89.8615 819.399 88.9499C824.98 90.6943 824.98 90.6943 828.03 87.9261C827.775 87.5946 827.298 87.2676 827.312 86.9476C827.353 85.9738 827.332 84.4677 827.823 84.1821C829.376 83.1615 828.801 85.1158 829.241 85.7339C830.005 86.7841 831.174 87.8519 832.203 86.4605C832.595 85.9197 831.914 84.3434 831.647 82.8267C831.956 81.6413 832.411 79.8908 832.997 77.672C834.041 77.6331 835.85 76.9443 836.887 77.6577C840.95 80.4521 845.254 80.8038 849.793 80.2318C850.422 80.1473 851.076 80.635 851.733 80.7607C852.144 80.7788 852.557 80.75 852.964 80.6743L853.116 77.1267C854.718 76.9445 856.195 76.8406 857.64 76.6237C859.467 76.3397 861.35 75.9189 863.117 75.6322C865.439 75.2718 867.769 74.9954 870.696 74.5633C873.391 70.9297 873.428 70.9173 878.292 72.7844C878.777 73.0121 879.32 73.0353 879.823 72.85C881.988 71.2843 883.702 72.7931 885.555 73.6252C888.311 74.8862 889.411 74.4038 891.326 71.5172C891.971 70.2492 892.856 69.1583 893.917 68.3249C895.059 67.6629 895.996 66.6143 896.594 65.3256C897.193 64.0369 897.424 62.5725 897.255 61.1369C897.044 58.3404 898.373 56.5297 898.778 54.2335C898.965 53.2957 899.468 52.4751 900.179 51.9477C900.89 51.4204 901.752 51.2287 902.579 51.414C905.419 52.135 906.556 50.4972 907.616 48.3824L899.074 32.4482C901.276 30.5774 903.416 28.732 905.579 26.9292C906.551 25.9582 907.796 25.4143 909.083 25.3978C910.371 25.3813 911.616 25.8932 912.588 26.8394C913.583 27.8906 914.836 28.5752 916.184 28.8051C918.335 28.73 919.989 29.9159 921.88 30.443C924.509 31.2108 927.16 32.0633 929.958 30.0369C933.757 27.2729 937.7 27.7206 941.524 30.1006C942.802 30.908 944.04 31.7833 945.256 32.602L942.944 34.4682C943.329 34.8599 943.789 35.1428 944.29 35.2949C944.79 35.4471 945.316 35.4638 945.826 35.3441C951.295 33.1255 952.533 27.4225 954.011 22.1339L960.086 21.7951C960.058 19.0064 959.853 16.6423 960.04 14.281C960.269 11.5033 961.587 10.5424 963.462 12.0026C965.018 13.2121 966.456 12.8556 968.003 12.8383C969.23 12.7551 970.46 12.8078 971.676 12.9957C972.965 13.2601 973.312 14.3341 972.786 15.7192C972.568 16.2255 972.386 16.7475 972.181 17.2544L972.836 17.7004C973.907 16.1853 974.99 14.6848 976.112 13.1161C979.102 17.7879 979.09 17.7733 983.792 15.4104C984.653 14.9569 985.557 14.6168 986.485 14.3968C987.624 14.153 989.21 13.5104 989.884 14.0968C993.289 17.0999 996.11 14.8235 999.249 13.4111C1001.52 12.6291 1003.85 12.0849 1006.2 11.7855C1006.33 12.6271 1006.43 13.3146 1006.54 13.9464L1008.79 13.8757C1009.38 17.8592 1009.38 17.8591 1013.89 18.178C1016.96 12.2888 1019.99 6.46714 1023.25 0.154017C1026.1 1.97672 1028.83 3.84991 1031.67 5.4768C1033.98 6.80235 1034.31 8.93484 1034.32 11.5555C1034.42 13.6344 1034.68 15.6973 1035.1 17.7212C1035.45 19.9944 1035.9 22.2711 1036.46 25.3895C1037.5 25.9916 1039.32 26.9056 1041.06 28.0535C1043.91 29.8345 1046.02 32.0153 1045.38 36.3364C1045.37 37.7578 1045.62 39.1624 1046.11 40.4652C1048.29 41.3254 1050.31 41.4815 1051.43 42.7005C1053.22 44.6305 1054.95 44.4542 1057.02 44.0549C1058.84 43.6614 1060.69 43.5023 1062.54 43.5806C1063.07 43.6353 1063.6 43.5047 1064.07 43.2062C1064.54 42.9076 1064.92 42.4551 1065.16 41.909C1065.34 41.5825 1065.79 41.4483 1066.17 41.1858L1068.44 43.8615C1069.17 43.4606 1070.03 43.2886 1070.29 42.756C1070.54 42.2234 1070.35 41.2259 1070.32 40.2211C1074.72 40.6744 1076.02 36.9808 1077.67 33.79C1078.54 32.0991 1079.44 30.4237 1080.33 28.7477L1085.39 25.2986L1089.42 27.5064C1089.41 27.7151 1089.4 27.9376 1089.39 28.1463C1091.03 31.7705 1091.07 31.7863 1094.51 30.5956L1092.55 28.2957L1095.49 28.5611L1095.5 28.3943C1095.71 29.4209 1094.77 31.2478 1096.61 31.2292C1097.96 31.1756 1098.15 29.9013 1097.61 28.5962L1098.95 27.5526C1099.58 27.5098 1100.42 27.1697 1100.8 27.5065C1100.97 27.6978 1101.18 27.8413 1101.41 27.9259C1101.64 28.0105 1101.88 28.0338 1102.12 27.9941C1102.36 27.9545 1102.59 27.8527 1102.79 27.6971C1102.99 27.5415 1103.15 27.336 1103.27 27.0966C1104.64 23.7824 1108.01 21.7245 1107.74 17.532C1109.37 17.3431 1111.02 17.5492 1112.56 18.1361C1114.11 18.723 1115.53 19.6777 1116.72 20.937C1117.91 22.1962 1118.85 23.7311 1119.48 25.4406C1120.1 27.15 1120.4 28.9951 1120.35 30.8532L1116.01 34.7648C1116.65 35.4753 1117.16 36.4729 1117.84 36.697C1118.52 36.9212 1118.91 36.1154 1119.27 35.0995C1120.24 32.3534 1122.57 32.2725 1124.19 34.8228C1124.87 36.1038 1125.95 37.0379 1127.22 37.4335C1128.77 37.8895 1130.13 38.9306 1131.08 40.3865C1132.05 42.0545 1133.56 43.2194 1135.28 43.6329C1138.54 44.6923 1140.77 46.6557 1141.31 50.5392C1144.67 50.8505 1147.83 52.0036 1150.9 49.8913C1151.29 49.697 1151.72 49.6333 1152.14 49.7074C1155.75 49.9736 1159.34 50.225 1162.94 50.6025C1163.48 50.6235 1164 50.7644 1164.49 51.017C1164.97 51.2697 1165.41 51.6291 1165.76 52.0746C1166.12 52.52 1166.4 53.043 1166.58 53.6129C1166.76 54.1828 1166.84 54.7886 1166.81 55.3956C1166.9 58.8696 1166.95 62.3704 1167.17 65.8223C1167.31 68.0165 1168.5 68.7501 1170.2 67.3458C1171 66.6712 1171.95 66.2784 1172.94 66.2167C1173.93 66.1549 1174.91 66.4271 1175.76 66.9989L1182.37 59.5749L1182.57 54.956C1184.45 53.1412 1186.02 53.2919 1187.35 55.5514C1185.1 55.2317 1184.61 56.5072 1185.15 58.6903L1183.47 60.0122L1186.67 64.0102L1186.84 60.1426C1185.22 59.9337 1185.22 59.9337 1185.12 58.6753L1187.32 57.4874C1187.29 56.8588 1187.26 56.091 1187.23 55.3928C1189.7 54.9274 1190.41 57.5499 1192.3 59.1781C1193.3 57.0606 1194.11 55.1857 1195 53.3984C1195.9 51.6111 1196.94 49.5509 1199.43 51.2326C1200.1 51.5286 1200.84 51.5895 1201.55 51.4075C1204.06 47.3337 1201.2 42.2354 1205.59 39.037L1209.66 43.3927C1212.05 42.5614 1214.36 40.8066 1217.2 42.2521C1216.69 43.7218 1216.27 44.9998 1215.79 46.3731L1216.3 46.7853C1216.91 46.2401 1217.58 45.6971 1218.1 45.19L1219.38 46.1647L1223.02 43.4494C1223.39 45.2519 1223.94 47 1224.65 48.6621C1225.7 50.4772 1226.93 52.7042 1228.54 53.4284C1229.99 54.0979 1231.29 55.103 1232.37 56.3798C1235.09 59.3813 1238.07 61.9482 1242.56 60.3292L1242.78 55.3072C1244.05 54.8236 1245.41 54.8327 1246.66 55.3334C1247.91 55.8341 1248.97 56.7975 1249.68 58.0699C1250.41 59.2639 1251.5 60.1237 1252.74 60.5006C1255.7 61.0734 1258.71 61.1606 1261.7 61.4423L1262.49 56.5146C1264.37 56.818 1267.47 54.9715 1268.04 53.4911C1268.27 52.8212 1268.62 52.2129 1269.07 51.709C1270.19 50.6476 1271.36 49.651 1272.57 48.7231C1274.28 47.2673 1276.08 45.9473 1277.95 44.7727C1278.39 44.6547 1278.84 44.6598 1279.28 44.7877C1279.71 44.9156 1280.11 45.1623 1280.43 45.5063C1281.99 47.4686 1284.11 47.8939 1286.13 48.6215C1287.22 49.0027 1288.36 49.1772 1289.44 49.4326C1289.56 50.6503 1289.68 51.8263 1289.8 53.0161C1291.79 53.5567 1293.61 54.6825 1295.07 56.2803C1297.51 59.1724 1300.9 60.7111 1303.76 59.7606C1307.68 58.5348 1311.95 59.0803 1315.62 56.1574L1323.87 64.0375C1320.49 66.9868 1317.73 69.6138 1316.35 73.8616C1318.37 76.8889 1320.06 80.5014 1324.5 80.6224C1325.51 76.6654 1330.81 76.7112 1331.02 71.7307C1331.03 71.5499 1331.45 71.387 1331.67 71.2151C1335.79 67.7681 1339.18 67.6348 1342.44 72.0671C1345.7 76.4995 1350.55 77.9897 1354.77 81.1671C1355.51 77.3521 1355.67 73.6932 1358.46 72.1821L1363.25 76.8892L1365.88 74.7165L1361.05 72.8929C1361.72 72.1411 1362.01 71.5398 1362.43 71.3629C1365.17 70.184 1367.11 73.2916 1369.79 73.0722L1372.77 69.5064L1370.95 69.5676L1372.47 67.0406C1376.11 67.8936 1375.3 72.3185 1377.52 74.421C1378.36 72.9532 1379.29 71.5626 1380.32 70.2621C1382.32 68.0764 1384.13 65.4499 1387.62 66.7285C1390.49 67.5962 1393.4 68.2793 1396.34 68.7747C1400.18 65.1343 1400.81 64.618 1403.87 64.9161C1407.13 65.2093 1410.35 65.905 1413.73 66.4538C1412.57 71.7143 1411.2 76.6593 1411.44 81.924C1411.57 84.7168 1412.09 85.6036 1414.47 84.9248C1417.01 84.4182 1419.39 83.1376 1421.36 81.2201C1422.34 80.1664 1423.54 79.42 1424.84 79.0557C1426.08 78.7187 1427.49 79.532 1426.76 81.3122C1425.39 84.5011 1428.53 84.8027 1429.09 86.7081L1430.42 84.2567L1432.4 85.3728C1432.62 84.4903 1432.85 83.6082 1433.07 82.7396C1439.74 82.8304 1442.53 85.6954 1441.09 90.7347C1444.18 88.6791 1447.31 91.4617 1450.73 90.6745C1451.37 88.1651 1452.41 85.9098 1455.44 86.1235C1457.31 86.1203 1459.18 85.9724 1461.04 85.6807C1465.45 85.2843 1469.94 85.3375 1473.39 81.1649C1474.17 80.2087 1475.79 80.1386 1476.96 79.7011C1477.61 81.3036 1478.07 82.4386 1478.73 84.0277C1481.07 81.2012 1480.68 78.0069 1481.08 75.2088C1487.01 74.2504 1489.58 75.573 1493.4 81.5624C1495.38 81.0482 1495.71 79.0695 1496.03 77.3271C1496.7 74.1082 1498.68 72.8689 1501.27 72.3109C1502.2 72.1121 1503.16 72.073 1504.1 72.1954C1505.26 72.3338 1506.42 72.1209 1507.49 71.5785C1508.55 71.0362 1509.47 70.1842 1510.15 69.1097C1512.9 65.4504 1513.7 65.499 1515.79 69.4353C1517.15 72.0024 1518.83 74.4572 1521.59 75.0076C1522.99 75.2906 1524.75 73.9584 1525.98 74.485C1527.21 75.0115 1528.02 76.9142 1529.13 78.3414C1530.63 76.5242 1531.95 74.8526 1533.34 73.2816C1533.83 72.8064 1534.39 72.4422 1534.99 72.2095C1536.87 71.3701 1538.75 70.5447 1540.64 69.7898C1542.93 68.8842 1545.18 67.6284 1547.25 70.4908C1548.24 71.8431 1549.66 71.4864 1550.82 70.1981C1551.54 69.3948 1552.4 68.7797 1553.35 68.397C1554.81 67.9534 1556.29 67.6167 1557.79 67.3887C1557.75 63.6241 1557.71 60.2772 1557.68 57.0701L1562.03 57.5215C1564.69 57.8029 1567.36 58.2238 1570.04 58.3805C1571.22 58.3277 1572.36 58.7927 1573.24 59.6791C1574.11 60.5654 1574.65 61.8049 1574.74 63.1396C1574.75 63.9663 1575.05 64.7501 1575.58 65.3188C1576.1 65.8875 1576.8 66.1945 1577.53 66.1723C1578.61 66.2743 1579.63 66.7482 1580.46 67.5308C1581.29 68.3135 1581.89 69.3677 1582.18 70.5527C1582.93 73.813 1584.45 76.7692 1586.58 79.104C1588.59 77.5592 1590.53 78.0464 1592.63 79.126C1594.47 79.9748 1596.5 80.1746 1598.46 79.6997C1600.42 79.2247 1602.21 78.0966 1603.61 76.4609C1605.59 73.8279 1607.18 70.8161 1608.59 68.5629L1612.84 66.71C1613.78 67.5436 1614.77 68.2945 1615.81 68.9558C1616.43 69.1987 1617.11 69.1986 1617.74 68.955C1618.66 64.6321 1621.18 66.9145 1622.84 67.5428C1627.06 69.1178 1630.49 67.0207 1631.25 61.9521C1631.84 58.0751 1632.31 54.1647 1633.05 50.3218C1633.84 46.1745 1638.02 43.5665 1641.28 45.476C1643.08 46.557 1644.8 46.3237 1646.58 46.5394C1648.36 46.7552 1650.07 46.6892 1651.8 46.9725C1656.92 47.775 1661.87 49.5857 1666.42 52.3236C1668.15 53.4757 1669.98 54.4141 1671.89 55.1229C1675 56.0507 1678.22 56.5231 1681.09 57.1339C1682.73 59.7548 1680.63 63.0794 1683.21 65.0575C1687.06 64.5396 1691.19 61.7758 1694.85 65.8493C1693.67 68.2099 1694.16 68.2447 1693.99 71.9586C1693.91 73.7254 1694.77 73.6927 1695.11 74.5292C1695.42 75.6239 1695.57 76.7685 1695.57 77.9221L1705.11 80.7976L1709.08 78.5846C1709.71 80.1448 1710.2 81.0995 1711.7 79.7424C1713.1 78.357 1714.71 77.2733 1716.45 76.5454C1725.36 73.5267 1734.49 73.6531 1743.52 74.6954C1745.99 75.0003 1748.49 74.7909 1750.91 74.078C1752.75 73.5833 1754.63 73.3737 1756.52 73.4545C1756.96 73.5655 1757.37 73.7842 1757.72 74.0955C1758.08 74.4069 1758.37 74.8032 1758.57 75.257C1759.29 76.9184 1759.9 78.6349 1760.4 80.3945C1767 73.5553 1769.74 72.934 1775.51 76.8608C1773.5 80.2729 1775.98 82.5255 1776.89 85.2825L1779.31 84.4523L1778.83 95.6653C1779.12 98.4656 1781.3 98.6283 1783.24 98.7396L1781.75 102.021C1784.96 103.266 1788.31 103.992 1791.7 104.175C1795.04 104.319 1798.47 103.825 1800.67 107.794C1801.06 108.507 1802.55 108.571 1803.55 108.669C1806.78 108.989 1810.01 109.127 1813.24 109.419C1815.88 109.658 1818.51 110.036 1821.17 110.359C1821.37 105.615 1818.5 102.746 1817.25 98.8314C1819.24 97.6622 1820.97 96.496 1822.82 95.6277C1823.69 95.2718 1824.63 95.2633 1825.5 95.6032C1829.11 97.1519 1832.66 98.7673 1836.33 100.416C1836.23 101.415 1836.12 102.525 1836 103.621C1836.94 103.453 1837.51 103.031 1837.6 102.519C1838.3 98.9114 1839.92 97.4897 1842.92 98.4407C1844.45 99.0537 1845.93 99.8312 1847.33 100.762C1846.91 103.532 1846.58 105.72 1846.39 106.91L1851.99 112.363L1853.7 108.143C1856.61 106.972 1858.61 110.152 1861.37 110.354C1863.27 107.648 1864.51 104.119 1867.69 102.764L1872.53 107.417C1875.25 106.59 1877.93 105.584 1880.56 104.402C1885.19 101.981 1886.08 101.42 1889.23 106.851C1891.42 105.802 1893.77 104.69 1895.96 107.766C1897.49 105.044 1898.33 101.666 1900.15 100.601C1902.96 98.9793 1903.18 96.3546 1903.95 93.7954C1905.43 94.3881 1907.48 94.5043 1907.98 95.5708C1909.3 98.4151 1910.83 95.5678 1912.05 96.066C1915.16 102.29 1921.29 102.859 1926.17 106.33C1928.37 102.948 1931.58 100.602 1935.19 99.7478C1936.23 99.4858 1937.72 99.6891 1938.28 98.9604C1940.55 96.0752 1943.09 97.0341 1944.64 97.6027C1947.39 96.1873 1949.26 95.0128 1951.24 94.2337C1954.55 92.8564 1954.05 97.1417 1955.48 98.3877C1957.92 96.3739 1960.13 94.4056 1962.44 92.6787C1963.02 92.3054 1963.7 92.1906 1964.35 92.3566C1966.39 92.876 1968.41 93.5758 1970.67 94.286L1968.99 99.5241L1973.2 103.147C1974.23 98.8846 1977.02 99.8823 1979.24 99.225L1986.49 97.0547C1986.6 99.4425 1986.68 101.481 1986.77 103.52C1989.74 103.884 1989.74 103.884 1990.56 107.236C1990.62 107.849 1990.78 108.442 1991.03 108.985C1991.49 109.66 1992.11 110.55 1992.72 110.632C1993.02 110.546 1993.3 110.384 1993.54 110.158C1993.78 109.932 1993.98 109.647 1994.11 109.326C1994.41 107.374 1995.54 107.77 1996.63 107.775Z" fill="#752706"/>
</svg>
