<svg width="26" height="22" viewBox="0 0 26 22" fill="none" xmlns="http://www.w3.org/2000/svg">
<g opacity="0.5">
<path d="M22.0086 4.45306H5.31162C4.4152 4.45306 3.56679 4.06485 2.97926 3.41054C3.55322 2.76979 4.38703 2.36593 5.31162 2.36593H24.0957C24.6728 2.36593 25.1393 1.89842 25.1393 1.32237C25.1393 0.746325 24.6728 0.278809 24.0957 0.278809H5.31162C2.43035 0.278809 0.093811 2.61535 0.093811 5.49662V15.9322C0.093811 18.8135 2.43035 21.1501 5.31162 21.1501H22.0086C23.7378 21.1501 25.1393 19.7486 25.1393 18.0194V7.58375C25.1393 5.85456 23.7378 4.45306 22.0086 4.45306ZM23.0522 18.0194C23.0522 18.5944 22.5847 19.0629 22.0086 19.0629H5.31162C3.58557 19.0629 2.18094 17.6583 2.18094 15.9322V5.49453C3.07214 6.16137 4.16788 6.54018 5.31162 6.54018H22.0086C22.5847 6.54018 23.0522 7.00874 23.0522 7.58375V18.0194ZM20.9651 12.8016C20.9651 13.3776 20.4975 13.8451 19.9215 13.8451C19.3455 13.8451 18.8779 13.3776 18.8779 12.8016C18.8779 12.2255 19.3455 11.758 19.9215 11.758C20.4975 11.758 20.9651 12.2255 20.9651 12.8016Z" fill="white"/>
</g>
</svg>
